<svg xmlns="http://www.w3.org/2000/svg" viewBox="0 0 108 72">
	<path fill="#fff" d="M35.8539 26.6225v7.4425h-7.7132v-7.4425H24v19.0527h4.1407v-7.9025h7.7132v7.9025h4.1407V26.6225h-4.1407ZM49.5821 31.3586c-3.6536 0-5.7375 2.0027-6.1164 4.4114h3.6807c.2165-.7308.9201-1.3532 2.2733-1.3532 1.3261 0 2.3004.6766 2.3004 1.9756v.6495h-3.0582c-3.5724 0-5.7375 1.6509-5.7375 4.5197 0 2.8146 2.1651 4.4384 4.8715 4.4384 1.8132 0 3.2747-.7037 4.1407-1.8403v1.5155h3.6536v-9.1475c0-3.41-2.4087-5.1691-6.0081-5.1691Zm-.7037 11.5832c-1.2178 0-2.0027-.5954-2.0027-1.5697 0-1.0013.8661-1.5967 2.0839-1.5967h2.7605v.6224c0 1.6239-1.3261 2.544-2.8417 2.544ZM66.7288 31.3586c-1.8945 0-3.1935.7578-3.9243 1.7321V26h-3.9512v19.6752h3.7889v-1.5967C63.2646 45.161 64.6449 46 66.6205 46c3.4371 0 6.1705-2.7064 6.1705-7.3072 0-4.682-2.7334-7.3342-6.0622-7.3342ZM65.7815 42.59c-1.8403 0-3.0581-1.4885-3.0581-3.843v-.1083c0-2.3545 1.2178-3.8701 3.0581-3.8701 1.8404 0 3.0312 1.5426 3.0312 3.9242 0 2.3816-1.1908 3.8972-3.0312 3.8972ZM83.2993 31.6292c-1.5968 0-3.1394.5954-4.0595 2.2192v-2.165h-3.7889v13.9918h3.9512v-7.0906c0-2.0027 1.2991-3.2206 3.6807-3.2206h.9202v-3.7348h-.7037Z"/>
</svg>