<svg xmlns="http://www.w3.org/2000/svg" xmlns:xlink="http://www.w3.org/1999/xlink" width="300" zoomAndPan="magnify" viewBox="0 0 224.87999 225" height="300" preserveAspectRatio="xMidYMid meet" version="1.0"><defs><clipPath id="6f3fe732bc"><path d="M 22.488281 22.546875 L 202.390625 22.546875 L 202.390625 202.453125 L 22.488281 202.453125 Z M 22.488281 22.546875 " clip-rule="nonzero"/></clipPath></defs><g clip-path="url(#6f3fe732bc)"><path fill="#02679a" d="M 202.390625 112.5 C 202.390625 113.972656 202.355469 115.445312 202.285156 116.914062 C 202.210938 118.382812 202.101562 119.851562 201.957031 121.316406 C 201.816406 122.78125 201.632812 124.242188 201.417969 125.699219 C 201.203125 127.15625 200.949219 128.605469 200.664062 130.046875 C 200.375 131.492188 200.054688 132.929688 199.695312 134.355469 C 199.339844 135.785156 198.945312 137.203125 198.519531 138.613281 C 198.089844 140.019531 197.628906 141.417969 197.132812 142.804688 C 196.636719 144.191406 196.109375 145.5625 195.542969 146.921875 C 194.980469 148.285156 194.386719 149.628906 193.753906 150.960938 C 193.125 152.289062 192.464844 153.605469 191.769531 154.902344 C 191.078125 156.203125 190.351562 157.480469 189.59375 158.746094 C 188.835938 160.007812 188.050781 161.25 187.230469 162.476562 C 186.414062 163.699219 185.566406 164.902344 184.691406 166.085938 C 183.8125 167.265625 182.90625 168.425781 181.972656 169.566406 C 181.039062 170.703125 180.078125 171.816406 179.089844 172.90625 C 178.101562 174 177.085938 175.066406 176.046875 176.105469 C 175.003906 177.148438 173.9375 178.160156 172.847656 179.148438 C 171.757812 180.136719 170.644531 181.101562 169.503906 182.035156 C 168.367188 182.96875 167.207031 183.875 166.023438 184.75 C 164.84375 185.628906 163.636719 186.472656 162.414062 187.292969 C 161.191406 188.109375 159.945312 188.898438 158.683594 189.65625 C 157.421875 190.410156 156.140625 191.136719 154.84375 191.832031 C 153.542969 192.523438 152.230469 193.1875 150.898438 193.816406 C 149.570312 194.445312 148.222656 195.042969 146.863281 195.605469 C 145.503906 196.167969 144.128906 196.699219 142.742188 197.195312 C 141.359375 197.691406 139.960938 198.152344 138.550781 198.578125 C 137.144531 199.007812 135.722656 199.398438 134.296875 199.757812 C 132.867188 200.113281 131.433594 200.4375 129.988281 200.722656 C 128.542969 201.011719 127.09375 201.261719 125.640625 201.476562 C 124.183594 201.695312 122.722656 201.875 121.257812 202.019531 C 119.792969 202.164062 118.324219 202.269531 116.855469 202.34375 C 115.382812 202.414062 113.914062 202.453125 112.441406 202.453125 C 110.96875 202.453125 109.496094 202.414062 108.027344 202.34375 C 106.554688 202.269531 105.089844 202.164062 103.625 202.019531 C 102.15625 201.875 100.699219 201.695312 99.242188 201.476562 C 97.785156 201.261719 96.335938 201.011719 94.890625 200.722656 C 93.449219 200.4375 92.011719 200.113281 90.582031 199.757812 C 89.15625 199.398438 87.738281 199.007812 86.328125 198.578125 C 84.917969 198.152344 83.523438 197.691406 82.136719 197.195312 C 80.75 196.699219 79.375 196.167969 78.015625 195.605469 C 76.65625 195.042969 75.3125 194.445312 73.980469 193.816406 C 72.648438 193.1875 71.335938 192.523438 70.035156 191.832031 C 68.738281 191.136719 67.457031 190.410156 66.195312 189.65625 C 64.933594 188.898438 63.6875 188.109375 62.464844 187.292969 C 61.242188 186.472656 60.039062 185.628906 58.855469 184.75 C 57.671875 183.875 56.511719 182.96875 55.375 182.035156 C 54.238281 181.101562 53.121094 180.140625 52.03125 179.148438 C 50.941406 178.160156 49.875 177.148438 48.835938 176.105469 C 47.792969 175.066406 46.777344 174 45.789062 172.90625 C 44.800781 171.816406 43.839844 170.703125 42.90625 169.566406 C 41.972656 168.425781 41.066406 167.265625 40.191406 166.085938 C 39.3125 164.902344 38.464844 163.699219 37.648438 162.476562 C 36.828125 161.25 36.042969 160.007812 35.285156 158.746094 C 34.527344 157.480469 33.804688 156.203125 33.109375 154.902344 C 32.414062 153.605469 31.753906 152.289062 31.125 150.960938 C 30.496094 149.628906 29.898438 148.285156 29.335938 146.921875 C 28.773438 145.5625 28.242188 144.191406 27.746094 142.804688 C 27.25 141.417969 26.789062 140.019531 26.359375 138.613281 C 25.933594 137.203125 25.542969 135.785156 25.183594 134.355469 C 24.824219 132.929688 24.503906 131.492188 24.214844 130.046875 C 23.929688 128.605469 23.675781 127.15625 23.460938 125.699219 C 23.246094 124.242188 23.066406 122.78125 22.921875 121.316406 C 22.777344 119.851562 22.667969 118.382812 22.597656 116.914062 C 22.523438 115.445312 22.488281 113.972656 22.488281 112.5 C 22.488281 111.027344 22.523438 109.558594 22.597656 108.085938 C 22.667969 106.617188 22.777344 105.148438 22.921875 103.683594 C 23.066406 102.21875 23.246094 100.757812 23.460938 99.300781 C 23.675781 97.84375 23.929688 96.394531 24.214844 94.953125 C 24.503906 93.507812 24.824219 92.070312 25.183594 90.644531 C 25.542969 89.214844 25.933594 87.796875 26.359375 86.386719 C 26.789062 84.980469 27.25 83.582031 27.746094 82.195312 C 28.242188 80.808594 28.773438 79.4375 29.335938 78.078125 C 29.898438 76.71875 30.496094 75.371094 31.125 74.039062 C 31.753906 72.710938 32.414062 71.394531 33.109375 70.097656 C 33.804688 68.796875 34.527344 67.519531 35.285156 66.253906 C 36.042969 64.992188 36.828125 63.75 37.648438 62.523438 C 38.464844 61.300781 39.3125 60.097656 40.191406 58.914062 C 41.066406 57.734375 41.972656 56.574219 42.90625 55.433594 C 43.839844 54.296875 44.800781 53.183594 45.789062 52.09375 C 46.777344 51 47.792969 49.933594 48.835938 48.894531 C 49.875 47.851562 50.941406 46.839844 52.03125 45.851562 C 53.121094 44.863281 54.238281 43.898438 55.375 42.964844 C 56.511719 42.03125 57.671875 41.125 58.855469 40.25 C 60.039062 39.371094 61.242188 38.527344 62.464844 37.707031 C 63.6875 36.890625 64.933594 36.101562 66.195312 35.34375 C 67.457031 34.589844 68.738281 33.863281 70.035156 33.167969 C 71.335938 32.476562 72.648438 31.8125 73.980469 31.183594 C 75.3125 30.554688 76.65625 29.957031 78.015625 29.394531 C 79.375 28.832031 80.75 28.300781 82.136719 27.804688 C 83.523438 27.308594 84.917969 26.847656 86.328125 26.421875 C 87.738281 25.992188 89.15625 25.601562 90.582031 25.242188 C 92.011719 24.886719 93.449219 24.5625 94.890625 24.277344 C 96.335938 23.988281 97.785156 23.738281 99.242188 23.523438 C 100.699219 23.304688 102.15625 23.125 103.625 22.980469 C 105.089844 22.835938 106.554688 22.730469 108.027344 22.65625 C 109.496094 22.585938 110.96875 22.546875 112.441406 22.546875 C 113.914062 22.546875 115.382812 22.585938 116.855469 22.65625 C 118.324219 22.730469 119.792969 22.835938 121.257812 22.980469 C 122.722656 23.125 124.183594 23.304688 125.636719 23.523438 C 127.09375 23.738281 128.542969 23.988281 129.988281 24.277344 C 131.433594 24.5625 132.867188 24.886719 134.296875 25.242188 C 135.722656 25.601562 137.144531 25.992188 138.550781 26.421875 C 139.960938 26.847656 141.359375 27.308594 142.742188 27.804688 C 144.128906 28.300781 145.503906 28.832031 146.863281 29.394531 C 148.222656 29.957031 149.570312 30.554688 150.898438 31.183594 C 152.230469 31.8125 153.542969 32.476562 154.84375 33.167969 C 156.140625 33.863281 157.421875 34.589844 158.683594 35.34375 C 159.945312 36.101562 161.191406 36.890625 162.414062 37.707031 C 163.636719 38.527344 164.84375 39.371094 166.023438 40.25 C 167.207031 41.125 168.367188 42.03125 169.503906 42.964844 C 170.644531 43.898438 171.757812 44.863281 172.847656 45.851562 C 173.9375 46.839844 175.003906 47.851562 176.046875 48.894531 C 177.085938 49.933594 178.101562 51 179.089844 52.09375 C 180.078125 53.183594 181.039062 54.296875 181.972656 55.433594 C 182.90625 56.574219 183.8125 57.734375 184.691406 58.914062 C 185.566406 60.097656 186.414062 61.300781 187.230469 62.523438 C 188.050781 63.75 188.835938 64.992188 189.59375 66.253906 C 190.351562 67.519531 191.078125 68.796875 191.769531 70.097656 C 192.464844 71.394531 193.125 72.710938 193.753906 74.039062 C 194.386719 75.371094 194.980469 76.71875 195.542969 78.078125 C 196.109375 79.4375 196.636719 80.808594 197.132812 82.195312 C 197.628906 83.582031 198.089844 84.980469 198.519531 86.386719 C 198.945312 87.796875 199.339844 89.214844 199.695312 90.644531 C 200.054688 92.070312 200.375 93.507812 200.664062 94.953125 C 200.949219 96.394531 201.203125 97.84375 201.417969 99.300781 C 201.632812 100.757812 201.816406 102.21875 201.957031 103.683594 C 202.101562 105.148438 202.210938 106.617188 202.285156 108.085938 C 202.355469 109.558594 202.390625 111.027344 202.390625 112.5 Z M 202.390625 112.5 " fill-opacity="1" fill-rule="nonzero"/></g><path fill="#ffffff" d="M 59.925781 111.71875 C 59.925781 111.71875 104.902344 93.261719 120.5 86.761719 C 126.480469 84.164062 146.757812 75.84375 146.757812 75.84375 C 146.757812 75.84375 156.117188 72.203125 155.335938 81.042969 C 155.078125 84.683594 152.996094 97.421875 150.917969 111.199219 C 147.796875 130.699219 144.417969 152.015625 144.417969 152.015625 C 144.417969 152.015625 143.898438 157.996094 139.476562 159.035156 C 135.058594 160.074219 127.777344 155.394531 126.480469 154.355469 C 125.4375 153.578125 106.980469 141.878906 100.222656 136.15625 C 98.402344 134.597656 96.320312 131.476562 100.480469 127.839844 C 109.839844 119.257812 121.019531 108.601562 127.777344 101.839844 C 130.898438 98.722656 134.019531 91.441406 121.019531 100.28125 C 102.5625 113.019531 84.363281 124.980469 84.363281 124.980469 C 84.363281 124.980469 80.203125 127.578125 72.402344 125.238281 C 64.605469 122.898438 55.503906 119.78125 55.503906 119.78125 C 55.503906 119.78125 49.265625 115.878906 59.925781 111.71875 Z M 59.925781 111.71875 " fill-opacity="1" fill-rule="nonzero"/></svg>